<svg width="318" height="67" viewBox="0 0 318 67" fill="none" xmlns="http://www.w3.org/2000/svg">
<g id="Ina Bang,">
<mask id="path-1-outside-1" maskUnits="userSpaceOnUse" x="-0.350006" y="0.310059" width="319" height="67" fill="black">
<rect fill="white" x="-0.350006" y="0.310059" width="319" height="67"/>
<path d="M9.22999 5.18006L9.64999 2.31006H29.67L29.25 5.18006C27.2433 5.55339 25.54 6.25339 24.14 7.28006L18.33 44.0301C19.17 44.9167 20.7333 45.6167 23.02 46.1301L22.67 49.0001H2.64999L2.99999 46.1301C4.91333 45.8501 6.59333 45.1501 8.03999 44.0301L13.85 7.28006C13.01 6.20673 11.47 5.50673 9.22999 5.18006Z"/>
<path d="M63.4674 40.4601L63.1874 42.4901C63.1874 43.6567 63.7007 44.2401 64.7274 44.2401C65.5207 44.2401 66.5941 43.8667 67.9474 43.1201L68.8574 45.6401C67.9241 46.5734 66.4541 47.4367 64.4474 48.2301C62.4408 49.0234 60.5041 49.4201 58.6374 49.4201C55.0441 49.4201 53.2474 47.4134 53.2474 43.4001C53.2474 42.3267 53.3641 41.0201 53.5974 39.4801L55.7674 25.9701C55.9074 25.0834 55.9774 24.2434 55.9774 23.4501C55.9774 20.6501 54.9974 19.2501 53.0374 19.2501C51.3107 19.2501 49.4907 20.9301 47.5774 24.2901C45.6641 27.6034 44.3808 31.2667 43.7274 35.2801L41.4874 49.0001H31.6174L35.6074 24.2201C35.7007 23.4734 35.7474 22.9601 35.7474 22.6801C35.7474 20.7201 34.3941 19.6467 31.6874 19.4601L31.2674 16.3801L43.3774 14.5601L45.8974 16.1001L45.7574 21.5601C48.6507 16.8934 52.4074 14.5601 57.0274 14.5601C59.8274 14.5601 61.9974 15.3301 63.5374 16.8701C65.1241 18.3634 65.9174 20.4634 65.9174 23.1701C65.9174 24.1501 65.8474 25.0834 65.7074 25.9701L63.4674 40.4601Z"/>
<path d="M104.695 42.4901C104.695 43.6101 105.185 44.1701 106.165 44.1701C107.238 44.1701 108.335 43.8201 109.455 43.1201L110.365 45.7801C106.585 48.2067 103.271 49.4201 100.425 49.4201C97.0647 49.4201 95.198 47.9734 94.8247 45.0801C92.6313 48.2067 89.598 49.7701 85.7247 49.7701C82.598 49.7701 79.9613 48.6267 77.8147 46.3401C75.668 44.0534 74.5947 40.7167 74.5947 36.3301C74.5947 29.1901 76.368 23.7767 79.9147 20.0901C83.4613 16.4034 88.0347 14.5601 93.6347 14.5601C95.828 14.5601 98.2547 15.0267 100.915 15.9601L106.795 14.6301L108.895 15.6801L108.475 18.3401C108.195 20.0667 107.845 22.1901 107.425 24.7101C107.005 27.2301 106.585 29.7734 106.165 32.3401C105.185 38.4067 104.695 41.7901 104.695 42.4901ZM88.8747 45.5001C90.5547 45.5001 92.0247 44.2867 93.2847 41.8601C94.5913 39.3867 95.618 35.9567 96.3647 31.5701L98.6047 18.6201C97.4847 18.2001 96.3647 17.9901 95.2447 17.9901C92.258 17.9901 89.738 19.5767 87.6847 22.7501C85.678 25.8767 84.6747 30.4501 84.6747 36.4701C84.6747 42.4901 86.0747 45.5001 88.8747 45.5001Z"/>
<path d="M158.107 2.31006C169.074 2.31006 174.557 5.60006 174.557 12.1801C174.557 18.3401 171.291 22.2367 164.757 23.8701C170.357 25.6434 173.157 28.8401 173.157 33.4601C173.157 38.0801 171.174 41.8367 167.207 44.7301C163.287 47.5767 157.991 49.0001 151.317 49.0001H131.507L131.857 46.1301C133.771 45.8501 135.451 45.1501 136.897 44.0301L142.707 7.28006C141.867 6.20673 140.327 5.50673 138.087 5.18006L138.507 2.31006H158.107ZM147.607 40.8801C147.514 41.6267 147.467 42.2334 147.467 42.7001C147.467 43.9134 148.634 44.5667 150.967 44.6601C158.294 44.4734 161.957 40.6234 161.957 33.1101C161.957 28.7701 158.714 26.6001 152.227 26.6001H149.917L147.607 40.8801ZM164.127 12.5301C164.127 8.75006 161.537 6.76673 156.357 6.58006C155.191 6.62673 154.351 6.79006 153.837 7.07006C153.371 7.30339 153.021 7.81673 152.787 8.61006L150.617 22.1901H152.437C160.231 22.1901 164.127 18.9701 164.127 12.5301Z"/>
<path d="M210.047 42.4901C210.047 43.6101 210.537 44.1701 211.517 44.1701C212.591 44.1701 213.687 43.8201 214.807 43.1201L215.717 45.7801C211.937 48.2067 208.624 49.4201 205.777 49.4201C202.417 49.4201 200.551 47.9734 200.177 45.0801C197.984 48.2067 194.951 49.7701 191.077 49.7701C187.951 49.7701 185.314 48.6267 183.167 46.3401C181.021 44.0534 179.947 40.7167 179.947 36.3301C179.947 29.1901 181.721 23.7767 185.267 20.0901C188.814 16.4034 193.387 14.5601 198.987 14.5601C201.181 14.5601 203.607 15.0267 206.267 15.9601L212.147 14.6301L214.247 15.6801L213.827 18.3401C213.547 20.0667 213.197 22.1901 212.777 24.7101C212.357 27.2301 211.937 29.7734 211.517 32.3401C210.537 38.4067 210.047 41.7901 210.047 42.4901ZM194.227 45.5001C195.907 45.5001 197.377 44.2867 198.637 41.8601C199.944 39.3867 200.971 35.9567 201.717 31.5701L203.957 18.6201C202.837 18.2001 201.717 17.9901 200.597 17.9901C197.611 17.9901 195.091 19.5767 193.037 22.7501C191.031 25.8767 190.027 30.4501 190.027 36.4701C190.027 42.4901 191.427 45.5001 194.227 45.5001Z"/>
<path d="M253.889 40.4601L253.609 42.4901C253.609 43.6567 254.123 44.2401 255.149 44.2401C255.943 44.2401 257.016 43.8667 258.369 43.1201L259.279 45.6401C258.346 46.5734 256.876 47.4367 254.869 48.2301C252.863 49.0234 250.926 49.4201 249.059 49.4201C245.466 49.4201 243.669 47.4134 243.669 43.4001C243.669 42.3267 243.786 41.0201 244.019 39.4801L246.189 25.9701C246.329 25.0834 246.399 24.2434 246.399 23.4501C246.399 20.6501 245.419 19.2501 243.459 19.2501C241.733 19.2501 239.913 20.9301 237.999 24.2901C236.086 27.6034 234.803 31.2667 234.149 35.2801L231.909 49.0001H222.039L226.029 24.2201C226.123 23.4734 226.169 22.9601 226.169 22.6801C226.169 20.7201 224.816 19.6467 222.109 19.4601L221.689 16.3801L233.799 14.5601L236.319 16.1001L236.179 21.5601C239.073 16.8934 242.829 14.5601 247.449 14.5601C250.249 14.5601 252.419 15.3301 253.959 16.8701C255.546 18.3634 256.339 20.4634 256.339 23.1701C256.339 24.1501 256.269 25.0834 256.129 25.9701L253.889 40.4601Z"/>
<path d="M274.817 64.3301C271.13 64.3301 268.213 63.7934 266.067 62.7201C263.967 61.6467 262.917 59.7101 262.917 56.9101C262.917 55.1834 263.5 53.7834 264.667 52.7101C265.88 51.6834 267.233 51.1701 268.727 51.1701C270.873 51.1701 272.32 52.1501 273.067 54.1101C271.993 54.8567 271.457 55.9301 271.457 57.3301C271.457 59.4301 272.927 60.4801 275.867 60.4801C281.607 60.4801 284.967 55.8134 285.947 46.4801L286.017 45.6401C283.777 48.3934 280.977 49.7701 277.617 49.7701C274.303 49.7701 271.573 48.6267 269.427 46.3401C267.28 44.0534 266.207 40.7167 266.207 36.3301C266.207 29.1901 267.98 23.7767 271.527 20.0901C275.073 16.4034 279.647 14.5601 285.247 14.5601C287.44 14.5601 289.867 15.0267 292.527 15.9601L298.407 14.6301L300.507 15.6801L295.677 45.5701C294.65 51.9634 292.41 56.6767 288.957 59.7101C285.503 62.7901 280.79 64.3301 274.817 64.3301ZM286.857 17.9901C283.87 17.9901 281.35 19.5767 279.297 22.7501C277.29 25.8767 276.287 30.4501 276.287 36.4701C276.287 42.4901 277.687 45.5001 280.487 45.5001C282.167 45.5001 283.66 44.1934 284.967 41.5801C286.32 38.9201 287.393 35.2801 288.187 30.6601L290.217 18.6201C289.097 18.2001 287.977 17.9901 286.857 17.9901Z"/>
<path d="M306.207 47.3901C305.507 46.5967 305.157 45.5701 305.157 44.3101C305.157 43.0501 305.693 41.8834 306.767 40.8101C307.887 39.7367 309.217 39.2001 310.757 39.2001C314.07 39.2001 315.727 40.8334 315.727 44.1001C315.727 50.0734 312.063 54.9734 304.737 58.8001L303.127 56.3501C304.947 55.1367 306.393 53.8301 307.467 52.4301C308.587 51.0767 309.147 49.8401 309.147 48.7201C309.147 47.6001 308.633 47.0401 307.607 47.0401C307.233 47.0401 306.767 47.1567 306.207 47.3901Z"/>
</mask>
<path d="M9.22999 5.18006L9.64999 2.31006H29.67L29.25 5.18006C27.2433 5.55339 25.54 6.25339 24.14 7.28006L18.33 44.0301C19.17 44.9167 20.7333 45.6167 23.02 46.1301L22.67 49.0001H2.64999L2.99999 46.1301C4.91333 45.8501 6.59333 45.1501 8.03999 44.0301L13.85 7.28006C13.01 6.20673 11.47 5.50673 9.22999 5.18006Z" stroke="black" stroke-width="4" mask="url(#path-1-outside-1)"/>
<path d="M63.4674 40.4601L63.1874 42.4901C63.1874 43.6567 63.7007 44.2401 64.7274 44.2401C65.5207 44.2401 66.5941 43.8667 67.9474 43.1201L68.8574 45.6401C67.9241 46.5734 66.4541 47.4367 64.4474 48.2301C62.4408 49.0234 60.5041 49.4201 58.6374 49.4201C55.0441 49.4201 53.2474 47.4134 53.2474 43.4001C53.2474 42.3267 53.3641 41.0201 53.5974 39.4801L55.7674 25.9701C55.9074 25.0834 55.9774 24.2434 55.9774 23.4501C55.9774 20.6501 54.9974 19.2501 53.0374 19.2501C51.3107 19.2501 49.4907 20.9301 47.5774 24.2901C45.6641 27.6034 44.3808 31.2667 43.7274 35.2801L41.4874 49.0001H31.6174L35.6074 24.2201C35.7007 23.4734 35.7474 22.9601 35.7474 22.6801C35.7474 20.7201 34.3941 19.6467 31.6874 19.4601L31.2674 16.3801L43.3774 14.5601L45.8974 16.1001L45.7574 21.5601C48.6507 16.8934 52.4074 14.5601 57.0274 14.5601C59.8274 14.5601 61.9974 15.3301 63.5374 16.8701C65.1241 18.3634 65.9174 20.4634 65.9174 23.1701C65.9174 24.1501 65.8474 25.0834 65.7074 25.9701L63.4674 40.4601Z" stroke="black" stroke-width="4" mask="url(#path-1-outside-1)"/>
<path d="M104.695 42.4901C104.695 43.6101 105.185 44.1701 106.165 44.1701C107.238 44.1701 108.335 43.8201 109.455 43.1201L110.365 45.7801C106.585 48.2067 103.271 49.4201 100.425 49.4201C97.0647 49.4201 95.198 47.9734 94.8247 45.0801C92.6313 48.2067 89.598 49.7701 85.7247 49.7701C82.598 49.7701 79.9613 48.6267 77.8147 46.3401C75.668 44.0534 74.5947 40.7167 74.5947 36.3301C74.5947 29.1901 76.368 23.7767 79.9147 20.0901C83.4613 16.4034 88.0347 14.5601 93.6347 14.5601C95.828 14.5601 98.2547 15.0267 100.915 15.9601L106.795 14.6301L108.895 15.6801L108.475 18.3401C108.195 20.0667 107.845 22.1901 107.425 24.7101C107.005 27.2301 106.585 29.7734 106.165 32.3401C105.185 38.4067 104.695 41.7901 104.695 42.4901ZM88.8747 45.5001C90.5547 45.5001 92.0247 44.2867 93.2847 41.8601C94.5913 39.3867 95.618 35.9567 96.3647 31.5701L98.6047 18.6201C97.4847 18.2001 96.3647 17.9901 95.2447 17.9901C92.258 17.9901 89.738 19.5767 87.6847 22.7501C85.678 25.8767 84.6747 30.4501 84.6747 36.4701C84.6747 42.4901 86.0747 45.5001 88.8747 45.5001Z" stroke="black" stroke-width="4" mask="url(#path-1-outside-1)"/>
<path d="M158.107 2.31006C169.074 2.31006 174.557 5.60006 174.557 12.1801C174.557 18.3401 171.291 22.2367 164.757 23.8701C170.357 25.6434 173.157 28.8401 173.157 33.4601C173.157 38.0801 171.174 41.8367 167.207 44.7301C163.287 47.5767 157.991 49.0001 151.317 49.0001H131.507L131.857 46.1301C133.771 45.8501 135.451 45.1501 136.897 44.0301L142.707 7.28006C141.867 6.20673 140.327 5.50673 138.087 5.18006L138.507 2.31006H158.107ZM147.607 40.8801C147.514 41.6267 147.467 42.2334 147.467 42.7001C147.467 43.9134 148.634 44.5667 150.967 44.6601C158.294 44.4734 161.957 40.6234 161.957 33.1101C161.957 28.7701 158.714 26.6001 152.227 26.6001H149.917L147.607 40.8801ZM164.127 12.5301C164.127 8.75006 161.537 6.76673 156.357 6.58006C155.191 6.62673 154.351 6.79006 153.837 7.07006C153.371 7.30339 153.021 7.81673 152.787 8.61006L150.617 22.1901H152.437C160.231 22.1901 164.127 18.9701 164.127 12.5301Z" stroke="black" stroke-width="4" mask="url(#path-1-outside-1)"/>
<path d="M210.047 42.4901C210.047 43.6101 210.537 44.1701 211.517 44.1701C212.591 44.1701 213.687 43.8201 214.807 43.1201L215.717 45.7801C211.937 48.2067 208.624 49.4201 205.777 49.4201C202.417 49.4201 200.551 47.9734 200.177 45.0801C197.984 48.2067 194.951 49.7701 191.077 49.7701C187.951 49.7701 185.314 48.6267 183.167 46.3401C181.021 44.0534 179.947 40.7167 179.947 36.3301C179.947 29.1901 181.721 23.7767 185.267 20.0901C188.814 16.4034 193.387 14.5601 198.987 14.5601C201.181 14.5601 203.607 15.0267 206.267 15.9601L212.147 14.6301L214.247 15.6801L213.827 18.3401C213.547 20.0667 213.197 22.1901 212.777 24.7101C212.357 27.2301 211.937 29.7734 211.517 32.3401C210.537 38.4067 210.047 41.7901 210.047 42.4901ZM194.227 45.5001C195.907 45.5001 197.377 44.2867 198.637 41.8601C199.944 39.3867 200.971 35.9567 201.717 31.5701L203.957 18.6201C202.837 18.2001 201.717 17.9901 200.597 17.9901C197.611 17.9901 195.091 19.5767 193.037 22.7501C191.031 25.8767 190.027 30.4501 190.027 36.4701C190.027 42.4901 191.427 45.5001 194.227 45.5001Z" stroke="black" stroke-width="4" mask="url(#path-1-outside-1)"/>
<path d="M253.889 40.4601L253.609 42.4901C253.609 43.6567 254.123 44.2401 255.149 44.2401C255.943 44.2401 257.016 43.8667 258.369 43.1201L259.279 45.6401C258.346 46.5734 256.876 47.4367 254.869 48.2301C252.863 49.0234 250.926 49.4201 249.059 49.4201C245.466 49.4201 243.669 47.4134 243.669 43.4001C243.669 42.3267 243.786 41.0201 244.019 39.4801L246.189 25.9701C246.329 25.0834 246.399 24.2434 246.399 23.4501C246.399 20.6501 245.419 19.2501 243.459 19.2501C241.733 19.2501 239.913 20.9301 237.999 24.2901C236.086 27.6034 234.803 31.2667 234.149 35.2801L231.909 49.0001H222.039L226.029 24.2201C226.123 23.4734 226.169 22.9601 226.169 22.6801C226.169 20.7201 224.816 19.6467 222.109 19.4601L221.689 16.3801L233.799 14.5601L236.319 16.1001L236.179 21.5601C239.073 16.8934 242.829 14.5601 247.449 14.5601C250.249 14.5601 252.419 15.3301 253.959 16.8701C255.546 18.3634 256.339 20.4634 256.339 23.1701C256.339 24.1501 256.269 25.0834 256.129 25.9701L253.889 40.4601Z" stroke="black" stroke-width="4" mask="url(#path-1-outside-1)"/>
<path d="M274.817 64.3301C271.13 64.3301 268.213 63.7934 266.067 62.7201C263.967 61.6467 262.917 59.7101 262.917 56.9101C262.917 55.1834 263.5 53.7834 264.667 52.7101C265.88 51.6834 267.233 51.1701 268.727 51.1701C270.873 51.1701 272.32 52.1501 273.067 54.1101C271.993 54.8567 271.457 55.9301 271.457 57.3301C271.457 59.4301 272.927 60.4801 275.867 60.4801C281.607 60.4801 284.967 55.8134 285.947 46.4801L286.017 45.6401C283.777 48.3934 280.977 49.7701 277.617 49.7701C274.303 49.7701 271.573 48.6267 269.427 46.3401C267.28 44.0534 266.207 40.7167 266.207 36.3301C266.207 29.1901 267.98 23.7767 271.527 20.0901C275.073 16.4034 279.647 14.5601 285.247 14.5601C287.44 14.5601 289.867 15.0267 292.527 15.9601L298.407 14.6301L300.507 15.6801L295.677 45.5701C294.65 51.9634 292.41 56.6767 288.957 59.7101C285.503 62.7901 280.79 64.3301 274.817 64.3301ZM286.857 17.9901C283.87 17.9901 281.35 19.5767 279.297 22.7501C277.29 25.8767 276.287 30.4501 276.287 36.4701C276.287 42.4901 277.687 45.5001 280.487 45.5001C282.167 45.5001 283.66 44.1934 284.967 41.5801C286.32 38.9201 287.393 35.2801 288.187 30.6601L290.217 18.6201C289.097 18.2001 287.977 17.9901 286.857 17.9901Z" stroke="black" stroke-width="4" mask="url(#path-1-outside-1)"/>
<path d="M306.207 47.3901C305.507 46.5967 305.157 45.5701 305.157 44.3101C305.157 43.0501 305.693 41.8834 306.767 40.8101C307.887 39.7367 309.217 39.2001 310.757 39.2001C314.07 39.2001 315.727 40.8334 315.727 44.1001C315.727 50.0734 312.063 54.9734 304.737 58.8001L303.127 56.3501C304.947 55.1367 306.393 53.8301 307.467 52.4301C308.587 51.0767 309.147 49.8401 309.147 48.7201C309.147 47.6001 308.633 47.0401 307.607 47.0401C307.233 47.0401 306.767 47.1567 306.207 47.3901Z" stroke="black" stroke-width="4" mask="url(#path-1-outside-1)"/>
</g>
</svg>
