<svg width="314" height="63" viewBox="0 0 314 63" fill="none" xmlns="http://www.w3.org/2000/svg">
<g id="Ina Bang,">
<path d="M7.22999 3.18006L7.64999 0.310059H27.67L27.25 3.18006C25.2433 3.55339 23.54 4.25339 22.14 5.28006L16.33 42.0301C17.17 42.9167 18.7333 43.6167 21.02 44.1301L20.67 47.0001H0.649994L0.999994 44.1301C2.91333 43.8501 4.59333 43.1501 6.03999 42.0301L11.85 5.28006C11.01 4.20673 9.46999 3.50673 7.22999 3.18006Z" fill="#454545"/>
<path d="M61.4674 38.4601L61.1874 40.4901C61.1874 41.6567 61.7007 42.2401 62.7274 42.2401C63.5207 42.2401 64.5941 41.8667 65.9474 41.1201L66.8574 43.6401C65.9241 44.5734 64.4541 45.4367 62.4474 46.2301C60.4408 47.0234 58.5041 47.4201 56.6374 47.4201C53.0441 47.4201 51.2474 45.4134 51.2474 41.4001C51.2474 40.3267 51.3641 39.0201 51.5974 37.4801L53.7674 23.9701C53.9074 23.0834 53.9774 22.2434 53.9774 21.4501C53.9774 18.6501 52.9974 17.2501 51.0374 17.2501C49.3107 17.2501 47.4907 18.9301 45.5774 22.2901C43.6641 25.6034 42.3808 29.2667 41.7274 33.2801L39.4874 47.0001H29.6174L33.6074 22.2201C33.7007 21.4734 33.7474 20.9601 33.7474 20.6801C33.7474 18.7201 32.3941 17.6467 29.6874 17.4601L29.2674 14.3801L41.3774 12.5601L43.8974 14.1001L43.7574 19.5601C46.6507 14.8934 50.4074 12.5601 55.0274 12.5601C57.8274 12.5601 59.9974 13.3301 61.5374 14.8701C63.1241 16.3634 63.9174 18.4634 63.9174 21.1701C63.9174 22.1501 63.8474 23.0834 63.7074 23.9701L61.4674 38.4601Z" fill="#454545"/>
<path d="M102.695 40.4901C102.695 41.6101 103.185 42.1701 104.165 42.1701C105.238 42.1701 106.335 41.8201 107.455 41.1201L108.365 43.7801C104.585 46.2067 101.271 47.4201 98.4247 47.4201C95.0647 47.4201 93.198 45.9734 92.8247 43.0801C90.6313 46.2067 87.598 47.7701 83.7247 47.7701C80.598 47.7701 77.9613 46.6267 75.8147 44.3401C73.668 42.0534 72.5947 38.7167 72.5947 34.3301C72.5947 27.1901 74.368 21.7767 77.9147 18.0901C81.4613 14.4034 86.0347 12.5601 91.6347 12.5601C93.828 12.5601 96.2547 13.0267 98.9147 13.9601L104.795 12.6301L106.895 13.6801L106.475 16.3401C106.195 18.0667 105.845 20.1901 105.425 22.7101C105.005 25.2301 104.585 27.7734 104.165 30.3401C103.185 36.4067 102.695 39.7901 102.695 40.4901ZM86.8747 43.5001C88.5547 43.5001 90.0247 42.2867 91.2847 39.8601C92.5913 37.3867 93.618 33.9567 94.3647 29.5701L96.6047 16.6201C95.4847 16.2001 94.3647 15.9901 93.2447 15.9901C90.258 15.9901 87.738 17.5767 85.6847 20.7501C83.678 23.8767 82.6747 28.4501 82.6747 34.4701C82.6747 40.4901 84.0747 43.5001 86.8747 43.5001Z" fill="#454545"/>
<path d="M156.107 0.310059C167.074 0.310059 172.557 3.60006 172.557 10.1801C172.557 16.3401 169.291 20.2367 162.757 21.8701C168.357 23.6434 171.157 26.8401 171.157 31.4601C171.157 36.0801 169.174 39.8367 165.207 42.7301C161.287 45.5767 155.991 47.0001 149.317 47.0001H129.507L129.857 44.1301C131.771 43.8501 133.451 43.1501 134.897 42.0301L140.707 5.28006C139.867 4.20673 138.327 3.50673 136.087 3.18006L136.507 0.310059H156.107ZM145.607 38.8801C145.514 39.6267 145.467 40.2334 145.467 40.7001C145.467 41.9134 146.634 42.5667 148.967 42.6601C156.294 42.4734 159.957 38.6234 159.957 31.1101C159.957 26.7701 156.714 24.6001 150.227 24.6001H147.917L145.607 38.8801ZM162.127 10.5301C162.127 6.75006 159.537 4.76673 154.357 4.58006C153.191 4.62673 152.351 4.79006 151.837 5.07006C151.371 5.30339 151.021 5.81673 150.787 6.61006L148.617 20.1901H150.437C158.231 20.1901 162.127 16.9701 162.127 10.5301Z" fill="#454545"/>
<path d="M208.047 40.4901C208.047 41.6101 208.537 42.1701 209.517 42.1701C210.591 42.1701 211.687 41.8201 212.807 41.1201L213.717 43.7801C209.937 46.2067 206.624 47.4201 203.777 47.4201C200.417 47.4201 198.551 45.9734 198.177 43.0801C195.984 46.2067 192.951 47.7701 189.077 47.7701C185.951 47.7701 183.314 46.6267 181.167 44.3401C179.021 42.0534 177.947 38.7167 177.947 34.3301C177.947 27.1901 179.721 21.7767 183.267 18.0901C186.814 14.4034 191.387 12.5601 196.987 12.5601C199.181 12.5601 201.607 13.0267 204.267 13.9601L210.147 12.6301L212.247 13.6801L211.827 16.3401C211.547 18.0667 211.197 20.1901 210.777 22.7101C210.357 25.2301 209.937 27.7734 209.517 30.3401C208.537 36.4067 208.047 39.7901 208.047 40.4901ZM192.227 43.5001C193.907 43.5001 195.377 42.2867 196.637 39.8601C197.944 37.3867 198.971 33.9567 199.717 29.5701L201.957 16.6201C200.837 16.2001 199.717 15.9901 198.597 15.9901C195.611 15.9901 193.091 17.5767 191.037 20.7501C189.031 23.8767 188.027 28.4501 188.027 34.4701C188.027 40.4901 189.427 43.5001 192.227 43.5001Z" fill="#454545"/>
<path d="M251.889 38.4601L251.609 40.4901C251.609 41.6567 252.123 42.2401 253.149 42.2401C253.943 42.2401 255.016 41.8667 256.369 41.1201L257.279 43.6401C256.346 44.5734 254.876 45.4367 252.869 46.2301C250.863 47.0234 248.926 47.4201 247.059 47.4201C243.466 47.4201 241.669 45.4134 241.669 41.4001C241.669 40.3267 241.786 39.0201 242.019 37.4801L244.189 23.9701C244.329 23.0834 244.399 22.2434 244.399 21.4501C244.399 18.6501 243.419 17.2501 241.459 17.2501C239.733 17.2501 237.913 18.9301 235.999 22.2901C234.086 25.6034 232.803 29.2667 232.149 33.2801L229.909 47.0001H220.039L224.029 22.2201C224.123 21.4734 224.169 20.9601 224.169 20.6801C224.169 18.7201 222.816 17.6467 220.109 17.4601L219.689 14.3801L231.799 12.5601L234.319 14.1001L234.179 19.5601C237.073 14.8934 240.829 12.5601 245.449 12.5601C248.249 12.5601 250.419 13.3301 251.959 14.8701C253.546 16.3634 254.339 18.4634 254.339 21.1701C254.339 22.1501 254.269 23.0834 254.129 23.9701L251.889 38.4601Z" fill="#454545"/>
<path d="M272.817 62.3301C269.13 62.3301 266.213 61.7934 264.067 60.7201C261.967 59.6467 260.917 57.7101 260.917 54.9101C260.917 53.1834 261.5 51.7834 262.667 50.7101C263.88 49.6834 265.233 49.1701 266.727 49.1701C268.873 49.1701 270.32 50.1501 271.067 52.1101C269.993 52.8567 269.457 53.9301 269.457 55.3301C269.457 57.4301 270.927 58.4801 273.867 58.4801C279.607 58.4801 282.967 53.8134 283.947 44.4801L284.017 43.6401C281.777 46.3934 278.977 47.7701 275.617 47.7701C272.303 47.7701 269.573 46.6267 267.427 44.3401C265.28 42.0534 264.207 38.7167 264.207 34.3301C264.207 27.1901 265.98 21.7767 269.527 18.0901C273.073 14.4034 277.647 12.5601 283.247 12.5601C285.44 12.5601 287.867 13.0267 290.527 13.9601L296.407 12.6301L298.507 13.6801L293.677 43.5701C292.65 49.9634 290.41 54.6767 286.957 57.7101C283.503 60.7901 278.79 62.3301 272.817 62.3301ZM284.857 15.9901C281.87 15.9901 279.35 17.5767 277.297 20.7501C275.29 23.8767 274.287 28.4501 274.287 34.4701C274.287 40.4901 275.687 43.5001 278.487 43.5001C280.167 43.5001 281.66 42.1934 282.967 39.5801C284.32 36.9201 285.393 33.2801 286.187 28.6601L288.217 16.6201C287.097 16.2001 285.977 15.9901 284.857 15.9901Z" fill="#454545"/>
<path d="M304.207 45.3901C303.507 44.5967 303.157 43.5701 303.157 42.3101C303.157 41.0501 303.693 39.8834 304.767 38.8101C305.887 37.7367 307.217 37.2001 308.757 37.2001C312.07 37.2001 313.727 38.8334 313.727 42.1001C313.727 48.0734 310.063 52.9734 302.737 56.8001L301.127 54.3501C302.947 53.1367 304.393 51.8301 305.467 50.4301C306.587 49.0767 307.147 47.8401 307.147 46.7201C307.147 45.6001 306.633 45.0401 305.607 45.0401C305.233 45.0401 304.767 45.1567 304.207 45.3901Z" fill="#454545"/>
</g>
</svg>
