<svg width="83" height="28" viewBox="0 0 83 28" fill="none" xmlns="http://www.w3.org/2000/svg">
<g id="logo">
<g id="Frame" clip-path="url(#clip0)">
<g id="Group">
<path id="Vector" d="M11.5361 6.51717C15.4314 6.51717 18.5776 9.66338 18.5776 13.5587C18.5776 17.454 15.4314 20.6002 11.5361 20.6002C7.64079 20.6002 4.49458 17.454 4.49458 13.5587C4.49458 9.66338 7.64079 6.51717 11.5361 6.51717ZM11.5361 2.02258C5.16877 2.02258 0 7.19136 0 13.5587C0 19.926 5.16877 25.0948 11.5361 25.0948C17.9034 25.0948 23.0722 19.926 23.0722 13.5587C23.0722 7.19136 17.9783 2.02258 11.5361 2.02258Z" fill="black"/>
</g>
<g id="Group_2">
<path id="Vector_2" d="M49.2906 6.51717C53.1859 6.51717 56.3321 9.66338 56.3321 13.5587C56.3321 17.454 53.1859 20.6002 49.2906 20.6002C45.3953 20.6002 42.2491 17.454 42.2491 13.5587C42.2491 9.66338 45.3953 6.51717 49.2906 6.51717ZM49.2906 2.02258C42.9233 2.02258 37.7545 7.19136 37.7545 13.5587C37.7545 19.926 42.9233 25.0948 49.2906 25.0948C55.6579 25.0948 60.8267 19.926 60.8267 13.5587C60.8267 7.19136 55.6579 2.02258 49.2906 2.02258Z" fill="black"/>
</g>
<g id="Group_3">
<path id="Vector_3" d="M31.6868 23.222L25.9188 27.2671V0H31.6868V23.222Z" fill="black"/>
</g>
<g id="Group_4">
<path id="Vector_4" d="M37.8294 27.2671H25.9188V21.3492L37.8294 25.3195V27.2671Z" fill="black"/>
</g>
<path id="Vector_5" d="M67.4188 17.8286L71.0144 5.0939V0.0749512H67.6435L59.5533 27.417H64.6471L66.2202 22.0235H75.7337L74.6101 17.8286H67.4188Z" fill="black"/>
<path id="Vector_6" d="M76.1083 23.222L77.2319 27.417H83L81.7265 23.222H76.1083Z" fill="black"/>
</g>
</g>
<defs>
<clipPath id="clip0">
<rect width="83" height="27.417" fill="white"/>
</clipPath>
</defs>
</svg>
