<svg width="430" height="430" viewBox="0 0 430 430" fill="none" xmlns="http://www.w3.org/2000/svg">
<path d="M213.087 0.792566C214.312 0.285096 215.688 0.285094 216.913 0.792563L365.115 62.1795C366.34 62.6869 367.313 63.6603 367.821 64.8855L429.207 213.087C429.715 214.312 429.715 215.688 429.207 216.913L367.821 365.115C367.313 366.34 366.34 367.313 365.115 367.821L216.913 429.207C215.688 429.715 214.312 429.715 213.087 429.207L64.8855 367.821C63.6603 367.313 62.687 366.34 62.1795 365.115L0.792566 216.913C0.285096 215.688 0.285094 214.312 0.792563 213.087L62.1795 64.8855C62.6869 63.6603 63.6603 62.687 64.8855 62.1795L213.087 0.792566Z" fill="#F88B74" fill-opacity="0.2"/>
</svg>
